<mxfile host="65bd71144e">
    <diagram id="9wVVwXLoMTNJFtX3fyUX" name="Page-1">
        <mxGraphModel dx="1143" dy="545" grid="1" gridSize="10" guides="1" tooltips="1" connect="1" arrows="1" fold="1" page="1" pageScale="1" pageWidth="850" pageHeight="1100" math="0" shadow="0">
            <root>
                <mxCell id="0"/>
                <mxCell id="1" parent="0"/>
                <mxCell id="4" style="edgeStyle=none;html=1;" edge="1" parent="1" source="2">
                    <mxGeometry relative="1" as="geometry">
                        <mxPoint x="380" y="210" as="targetPoint"/>
                    </mxGeometry>
                </mxCell>
                <mxCell id="2" value="INICIO" style="ellipse;whiteSpace=wrap;html=1;fillColor=#0050ef;fontColor=#ffffff;strokeColor=#001DBC;" vertex="1" parent="1">
                    <mxGeometry x="320" y="80" width="120" height="80" as="geometry"/>
                </mxCell>
                <mxCell id="9" style="edgeStyle=none;html=1;" edge="1" parent="1" source="6" target="8">
                    <mxGeometry relative="1" as="geometry"/>
                </mxCell>
                <mxCell id="6" value="&lt;div style=&quot;color: rgb(212 , 212 , 212) ; background-color: rgb(30 , 30 , 30) ; font-family: &amp;#34;consolas&amp;#34; , &amp;#34;courier new&amp;#34; , monospace ; font-size: 14px ; line-height: 19px&quot;&gt;&lt;div&gt;&lt;span style=&quot;color: #9cdcfe&quot;&gt;cantbilletesdosmil&lt;/span&gt;=&lt;span style=&quot;color: #b5cea8&quot;&gt;0&lt;/span&gt;&lt;/div&gt;&lt;div&gt;&lt;span style=&quot;color: #9cdcfe&quot;&gt;cantbilletesdiezmil&lt;/span&gt;=&lt;span style=&quot;color: #b5cea8&quot;&gt;0&lt;/span&gt;&lt;/div&gt;&lt;div&gt;&lt;span style=&quot;color: #9cdcfe&quot;&gt;cantmonedascien&lt;/span&gt;=&lt;span style=&quot;color: #b5cea8&quot;&gt;0&lt;/span&gt;&lt;/div&gt;&lt;div&gt;&lt;span style=&quot;color: #b5cea8&quot;&gt;CHEQUE=int&lt;/span&gt;&lt;/div&gt;&lt;/div&gt;" style="rounded=0;whiteSpace=wrap;html=1;fillColor=#d80073;fontColor=#ffffff;strokeColor=#A50040;" vertex="1" parent="1">
                    <mxGeometry x="295" y="210" width="170" height="100" as="geometry"/>
                </mxCell>
                <mxCell id="11" style="edgeStyle=none;html=1;" edge="1" parent="1" source="8" target="10">
                    <mxGeometry relative="1" as="geometry"/>
                </mxCell>
                <mxCell id="23" style="edgeStyle=none;html=1;" edge="1" parent="1" source="8" target="22">
                    <mxGeometry relative="1" as="geometry">
                        <Array as="points">
                            <mxPoint x="690" y="405"/>
                        </Array>
                    </mxGeometry>
                </mxCell>
                <mxCell id="8" value="&lt;div style=&quot;color: rgb(212 , 212 , 212) ; background-color: rgb(30 , 30 , 30) ; font-family: &amp;#34;consolas&amp;#34; , &amp;#34;courier new&amp;#34; , monospace ; font-size: 14px ; line-height: 19px&quot;&gt;&lt;span style=&quot;color: #9cdcfe&quot;&gt;cheque&lt;/span&gt; != &lt;span style=&quot;color: #b5cea8&quot;&gt;0&lt;/span&gt;&lt;/div&gt;" style="rhombus;whiteSpace=wrap;html=1;fillColor=#60a917;fontColor=#ffffff;strokeColor=#2D7600;" vertex="1" parent="1">
                    <mxGeometry x="325" y="350" width="110" height="110" as="geometry"/>
                </mxCell>
                <mxCell id="13" style="edgeStyle=none;html=1;" edge="1" parent="1" source="10" target="12">
                    <mxGeometry relative="1" as="geometry"/>
                </mxCell>
                <mxCell id="10" value="CHEQUE" style="shape=parallelogram;perimeter=parallelogramPerimeter;whiteSpace=wrap;html=1;fixedSize=1;fillColor=#6a00ff;fontColor=#ffffff;strokeColor=#3700CC;" vertex="1" parent="1">
                    <mxGeometry x="320" y="490" width="120" height="60" as="geometry"/>
                </mxCell>
                <mxCell id="17" style="edgeStyle=none;html=1;" edge="1" parent="1" source="12" target="16">
                    <mxGeometry relative="1" as="geometry"/>
                </mxCell>
                <mxCell id="12" value="&#10;&#10;&lt;div style=&quot;color: rgb(212, 212, 212); background-color: rgb(30, 30, 30); font-family: consolas, &amp;quot;courier new&amp;quot;, monospace; font-weight: normal; font-size: 14px; line-height: 19px;&quot;&gt;&lt;div&gt;&lt;span style=&quot;color: #9cdcfe&quot;&gt;billetesdiezmil&lt;/span&gt;&lt;span style=&quot;color: #d4d4d4&quot;&gt;=&lt;/span&gt;&lt;span style=&quot;color: #9cdcfe&quot;&gt;cheque&lt;/span&gt;&lt;span style=&quot;color: #d4d4d4&quot;&gt;//&lt;/span&gt;&lt;span style=&quot;color: #b5cea8&quot;&gt;10000&lt;/span&gt;&lt;/div&gt;&lt;div&gt;&lt;span style=&quot;color: #d4d4d4&quot;&gt;&amp;nbsp; &amp;nbsp; &lt;/span&gt;&lt;span style=&quot;color: #9cdcfe&quot;&gt;billetesdosmil&lt;/span&gt;&lt;span style=&quot;color: #d4d4d4&quot;&gt;=(&lt;/span&gt;&lt;span style=&quot;color: #9cdcfe&quot;&gt;cheque&lt;/span&gt;&lt;span style=&quot;color: #d4d4d4&quot;&gt;-(&lt;/span&gt;&lt;span style=&quot;color: #9cdcfe&quot;&gt;billetesdiezmil&lt;/span&gt;&lt;span style=&quot;color: #d4d4d4&quot;&gt;*&lt;/span&gt;&lt;span style=&quot;color: #b5cea8&quot;&gt;10000&lt;/span&gt;&lt;span style=&quot;color: #d4d4d4&quot;&gt;))//&lt;/span&gt;&lt;span style=&quot;color: #b5cea8&quot;&gt;2000&lt;/span&gt;&lt;/div&gt;&lt;div&gt;&lt;span style=&quot;color: #d4d4d4&quot;&gt;&amp;nbsp; &amp;nbsp; &lt;/span&gt;&lt;span style=&quot;color: #9cdcfe&quot;&gt;monedascien&lt;/span&gt;&lt;span style=&quot;color: #d4d4d4&quot;&gt;=(&lt;/span&gt;&lt;span style=&quot;color: #9cdcfe&quot;&gt;cheque&lt;/span&gt;&lt;span style=&quot;color: #d4d4d4&quot;&gt;-(&lt;/span&gt;&lt;span style=&quot;color: #9cdcfe&quot;&gt;billetesdiezmil&lt;/span&gt;&lt;span style=&quot;color: #d4d4d4&quot;&gt;*&lt;/span&gt;&lt;span style=&quot;color: #b5cea8&quot;&gt;10000&lt;/span&gt;&lt;span style=&quot;color: #d4d4d4&quot;&gt;)-(&lt;/span&gt;&lt;span style=&quot;color: #9cdcfe&quot;&gt;billetesdosmil&lt;/span&gt;&lt;span style=&quot;color: #d4d4d4&quot;&gt;*&lt;/span&gt;&lt;span style=&quot;color: #b5cea8&quot;&gt;2000&lt;/span&gt;&lt;span style=&quot;color: #d4d4d4&quot;&gt;))//&lt;/span&gt;&lt;span style=&quot;color: #b5cea8&quot;&gt;100&lt;/span&gt;&lt;/div&gt;&lt;/div&gt;&#10;&#10;" style="rounded=0;whiteSpace=wrap;html=1;fillColor=#d80073;fontColor=#ffffff;strokeColor=#A50040;" vertex="1" parent="1">
                    <mxGeometry x="250" y="590" width="260" height="130" as="geometry"/>
                </mxCell>
                <mxCell id="20" style="edgeStyle=none;html=1;" edge="1" parent="1" source="16" target="19">
                    <mxGeometry relative="1" as="geometry"/>
                </mxCell>
                <mxCell id="16" value="&lt;span&gt;cheque&lt;/span&gt;&lt;br&gt;&lt;span&gt;billetesdeizmil&lt;/span&gt;&lt;br&gt;&lt;span&gt;billetesdosmil&lt;/span&gt;&lt;br&gt;&lt;span&gt;monedascien&lt;/span&gt;" style="shape=document;whiteSpace=wrap;html=1;boundedLbl=1;fillColor=#a0522d;fontColor=#ffffff;strokeColor=#6D1F00;" vertex="1" parent="1">
                    <mxGeometry x="320" y="750" width="120" height="80" as="geometry"/>
                </mxCell>
                <mxCell id="21" style="edgeStyle=none;html=1;entryX=0;entryY=0.5;entryDx=0;entryDy=0;" edge="1" parent="1" source="19" target="8">
                    <mxGeometry relative="1" as="geometry">
                        <Array as="points">
                            <mxPoint x="380" y="1080"/>
                            <mxPoint x="50" y="1080"/>
                            <mxPoint x="60" y="405"/>
                        </Array>
                    </mxGeometry>
                </mxCell>
                <mxCell id="19" value="&lt;div style=&quot;color: rgb(212 , 212 , 212) ; background-color: rgb(30 , 30 , 30) ; font-family: &amp;quot;consolas&amp;quot; , &amp;quot;courier new&amp;quot; , monospace ; font-size: 14px ; line-height: 19px&quot;&gt;&lt;div&gt;&lt;span style=&quot;color: #9cdcfe&quot;&gt;cantbilletesdiezmil&lt;/span&gt;= &lt;span style=&quot;color: #9cdcfe&quot;&gt;cantbilletesdiezmil&lt;/span&gt; + &lt;span style=&quot;color: #9cdcfe&quot;&gt;billetesdiezmil&lt;/span&gt;&lt;/div&gt;&lt;div&gt;&lt;span style=&quot;color: #9cdcfe&quot;&gt;cantbilletesdosmil&lt;/span&gt;=&lt;span style=&quot;color: #9cdcfe&quot;&gt;cantbilletesdosmil&lt;/span&gt; + &lt;span style=&quot;color: #9cdcfe&quot;&gt;billetesdosmil&lt;/span&gt; &lt;/div&gt;&lt;div&gt;&lt;span style=&quot;color: #9cdcfe&quot;&gt;cantmonedascien&lt;/span&gt;=&lt;span style=&quot;color: #9cdcfe&quot;&gt;cantmonedascien&lt;/span&gt; + &lt;span style=&quot;color: #9cdcfe&quot;&gt;monedascien&lt;/span&gt;&lt;/div&gt;&lt;/div&gt;" style="rounded=0;whiteSpace=wrap;html=1;align=center;fillColor=#d80073;fontColor=#ffffff;strokeColor=#A50040;" vertex="1" parent="1">
                    <mxGeometry x="155" y="860" width="450" height="90" as="geometry"/>
                </mxCell>
                <mxCell id="25" style="edgeStyle=none;html=1;" edge="1" parent="1" source="22" target="24">
                    <mxGeometry relative="1" as="geometry"/>
                </mxCell>
                <mxCell id="22" value="cantmonedascien&lt;br&gt;cantbilletesdiezmil&lt;br&gt;cantbilletesdosmil" style="shape=document;whiteSpace=wrap;html=1;boundedLbl=1;fillColor=#a0522d;fontColor=#ffffff;strokeColor=#6D1F00;" vertex="1" parent="1">
                    <mxGeometry x="630" y="530" width="120" height="80" as="geometry"/>
                </mxCell>
                <mxCell id="24" value="FIN" style="ellipse;whiteSpace=wrap;html=1;fillColor=#e51400;fontColor=#ffffff;strokeColor=#B20000;" vertex="1" parent="1">
                    <mxGeometry x="630" y="670" width="120" height="80" as="geometry"/>
                </mxCell>
                <mxCell id="26" value="F" style="text;html=1;strokeColor=none;fillColor=none;align=center;verticalAlign=middle;whiteSpace=wrap;rounded=0;" vertex="1" parent="1">
                    <mxGeometry x="560" y="360" width="60" height="30" as="geometry"/>
                </mxCell>
                <mxCell id="27" value="V" style="text;html=1;strokeColor=none;fillColor=none;align=center;verticalAlign=middle;whiteSpace=wrap;rounded=0;" vertex="1" parent="1">
                    <mxGeometry x="300" y="450" width="60" height="30" as="geometry"/>
                </mxCell>
            </root>
        </mxGraphModel>
    </diagram>
</mxfile>